<svg width="34" height="34" viewBox="0 0 34 34" fill="none" xmlns="http://www.w3.org/2000/svg">
<path d="M12.3147 24.091C8.39847 21.5034 7.32139 16.231 9.909 12.3147C12.4966 8.39847 17.769 7.32139 21.6853 9.909C24.2984 11.6356 25.6474 14.5575 25.4872 17.4742L33.9846 17.7399C34.2302 11.976 31.5345 6.22998 26.3706 2.818C18.538 -2.35721 7.99321 -0.203055 2.818 7.62945C-2.35721 15.4619 -0.203055 26.0068 7.62945 31.182C12.6408 34.4932 18.7626 34.804 23.8778 32.5468L24.2239 21.4778C24.1807 21.5474 24.1364 21.6165 24.091 21.6853C21.5034 25.6015 16.231 26.6786 12.3147 24.091Z" fill="#00CBA0"/>
</svg>
